<svg id="Capa_1" data-name="Capa 1" xmlns="http://www.w3.org/2000/svg" viewBox="0 0 59.52 24.11"><defs><style>.cls-1{fill:#fff;}</style></defs><title>logo</title><path id="_Trazado_compuesto_" data-name="&lt;Trazado compuesto&gt;" class="cls-1" d="M.69,1.53A1.24,1.24,0,0,1,1.93.3H9.35q6.56,0,10.07,3.1t3.52,8.92q0,5.7-3.63,8.86T9.2,24.35H1.93A1.24,1.24,0,0,1,.69,23.11Zm6.24,17.1a.55.55,0,0,0,.55.55H9q7.44,0,7.44-6.87T9,5.46H7.48A.55.55,0,0,0,6.93,6ZM48,.3h0a4.8,4.8,0,0,1,4.47,3.05L60.14,23a1,1,0,0,1-.95,1.39h-4.4a1.06,1.06,0,0,1-1-.72l-1.46-4.36a.68.68,0,0,0-.64-.46H43.93a.68.68,0,0,0-.64.46l-1.44,4.35a1.06,1.06,0,0,1-1,.72h-4A1,1,0,0,1,35.88,23L43.54,3.35A4.8,4.8,0,0,1,48,.3Zm2.32,13.07-2.1-6.26a.47.47,0,0,0-.89,0l-2.1,6.26a.45.45,0,0,0,.43.6H49.9A.45.45,0,0,0,50.33,13.37ZM27.14,9l4.7-2.77a.73.73,0,0,1,1.09.63V23.19a1.17,1.17,0,0,1-1.17,1.17h-4a1.17,1.17,0,0,1-1.17-1.17V10A1.17,1.17,0,0,1,27.14,9ZM32.94.89V2.74a.64.64,0,0,1-.32.55l-5.1,2.93a.64.64,0,0,1-1-.55V.89A.64.64,0,0,1,27.2.25h5.1A.64.64,0,0,1,32.94.89Z" transform="translate(-0.69 -0.25)"/></svg>