<?xml version="1.0" ?><svg style="enable-background:new 0 0 256 256;" version="1.1" viewBox="0 0 256 256" xml:space="preserve" xmlns="http://www.w3.org/2000/svg" xmlns:xlink="http://www.w3.org/1999/xlink"><style type="text/css">
	.st0{fill:#00A388;}
	.st1{fill:#EA685E;stroke:#00886F;stroke-width:15;stroke-miterlimit:10;}
	.st2{fill:#E8E8E8;}
	.st3{fill:#FFFFFF;stroke:#00886F;stroke-width:15;stroke-miterlimit:10;}
	.st4{fill:#00886F;}
	.st5{fill:#FFFFFF;}
	.st6{fill:#CCCCCC;}
	.st7{fill:none;stroke:#00A388;stroke-width:4;stroke-miterlimit:10;}
	.st8{fill:#EA685E;}
	.st9{fill:#FFAB80;}
	.st10{fill:#2C3E50;}
	.st11{fill:#4B687F;}
	.st12{fill:none;stroke:#3E5063;stroke-width:4;stroke-miterlimit:10;}
	.st13{fill:#FFD766;}
	.st14{fill:#FFE6D3;}
	.st15{fill:#F09A79;}
	.st16{fill:#C91E01;}
	.st17{fill:#EA3B28;}
	.st18{fill:#0F627F;}
	.st19{fill:#005670;}
	.st20{filter:url(#Adobe_OpacityMaskFilter);}
	.st21{mask:url(#SVGID_2_);}
	.st22{fill:#8C623B;}
	.st23{fill:#E6E6E6;stroke:#005670;stroke-width:16;stroke-miterlimit:10;}
	.st24{opacity:0.6;}
	.st25{fill:#E6E6E6;}
	.st26{fill:#FFEC82;}
	.st27{fill:#FFCF3A;}
	.st28{filter:url(#Adobe_OpacityMaskFilter_1_);}
	.st29{mask:url(#SVGID_1_);}
	.st30{fill:#603813;}
	.st31{fill:#F2F2F2;}
	.st32{fill:#666666;}
</style><g id="Layer_2"><circle class="st2" cx="128" cy="128" r="120"/></g><g id="Layer_1"><g><g><path class="st16" d="M206.688919,117.458435c2.273071-2.452972,1.485855-6.410622-1.552933-7.807106l-10.224411-4.698296     c-1.235031-0.567436-2.114777-1.592308-2.550568-2.783974c-0.602386,0.601097-1.190445,1.210678-1.820328,1.795593     c-15.769165,15.769432-39.191772,25.469261-61.488052,25.469261c-23.56118,0-44.474716-9.851196-61.488045-25.469261     c-1.269791-1.16571-2.469101-2.385902-3.633072-3.632813c0.06039,1.925369-1.003288,3.775696-2.843082,4.621193     l-10.224419,4.698296c-3.03878,1.396484-3.826008,5.354134-1.552929,7.807106l7.64822,8.253242     c1.746571,1.885017,1.746571,4.796974,0,6.68174l-7.64822,8.253494c-2.273079,2.452972-1.485851,6.410629,1.552929,7.806854     l10.224419,4.698288c2.334949,1.073196,3.449383,3.763367,2.556988,6.173172l-3.9076,10.552017     c-1.161339,3.136047,1.080517,6.491302,4.422348,6.618515l11.244156,0.427887     c2.567787,0.097656,4.626923,2.156921,4.72464,4.724777l0.427956,11.24408     c0.127144,3.341904,3.482346,5.583633,6.618462,4.422287l10.552017-3.907532     c2.409668-0.892517,5.100098,0.222046,6.173027,2.556793l4.698296,10.224609     c1.396355,3.038666,5.354073,3.82608,7.807045,1.552734l8.253365-7.648026c1.884834-1.746506,4.796913-1.746506,6.68174,0     l8.253372,7.648026c2.452972,2.273346,6.41069,1.485931,7.807037-1.552734l4.698303-10.224609     c1.072937-2.334747,3.763367-3.44931,6.173035-2.556793l10.552017,3.907532     c3.136108,1.161346,6.491318-1.080383,6.618454-4.422287l0.427948-11.24408c0.097733-2.567856,2.15686-4.627121,4.72464-4.724777     l11.244156-0.427887c3.341843-0.127213,5.583694-3.482468,4.422348-6.618515l-3.907593-10.552017     c-0.892395-2.409805,0.222046-5.099976,2.556992-6.173172l10.224411-4.698288     c3.038788-1.396225,3.826004-5.353882,1.552933-7.806854l-7.648224-8.253494c-1.746567-1.884766-1.746567-4.796722,0-6.68174     L206.688919,117.458435z"/></g><g><path class="st17" d="M131.29689,55.788803l8.144791-7.547573c2.4207-2.243206,6.326309-1.466331,7.7043,1.532482     l4.636475,10.089924c1.058823,2.304214,3.713837,3.403954,6.091858,2.523327l10.413132-3.856171     c3.094879-1.146088,6.405899,1.066261,6.531403,4.364143l0.422302,11.096176     c0.096436,2.534004,2.128494,4.566063,4.662506,4.662498l11.096176,0.422302     c3.297882,0.125511,5.510223,3.436523,4.364136,6.531395l-3.856171,10.413139     c-0.88063,2.378021,0.219116,5.033035,2.523331,6.09185l10.08992,4.636475c2.99881,1.378006,3.775696,5.283607,1.532486,7.704315     l-7.547577,8.144791c-1.723618,1.860001-1.723618,4.733765,0,6.593773l7.547577,8.144791     c2.24321,2.4207,1.466324,6.326309-1.532486,7.704315l-10.08992,4.636475     c-2.304214,1.058807-3.403961,3.713821-2.523331,6.091843l3.856171,10.413147     c1.146088,3.094864-1.066254,6.405884-4.364136,6.531387l-11.096176,0.422302     c-2.534012,0.096436-4.566071,2.128494-4.662506,4.662506l-0.422302,11.096176     c-0.125504,3.297882-3.436523,5.510223-6.531403,4.364136l-10.413132-3.856171     c-2.378021-0.88063-5.033035,0.219116-6.091858,2.523331l-4.636475,10.08992c-1.377991,2.99881-5.2836,3.775696-7.7043,1.532486     l-8.144791-7.547577c-1.860016-1.723618-4.733772-1.723618-6.593781,0l-8.144791,7.547577     c-2.4207,2.24321-6.326309,1.466324-7.704308-1.532486l-4.636475-10.08992     c-1.058823-2.304214-3.713829-3.403961-6.09185-2.523331l-10.413139,3.856171     c-3.094872,1.146088-6.405891-1.066254-6.531395-4.364136l-0.422302-11.096176     c-0.096436-2.534012-2.128494-4.566071-4.662498-4.662506l-11.096176-0.422302     c-3.297882-0.125504-5.510231-3.436523-4.364143-6.531387l3.856171-10.413147     c0.880623-2.378021-0.219116-5.033035-2.523327-6.091843l-10.089924-4.636475     c-2.998814-1.378006-3.775688-5.283615-1.532482-7.704315l7.547569-8.144791c1.723621-1.860008,1.723621-4.733772,0-6.593773     l-7.547569-8.144791c-2.243206-2.420708-1.466331-6.326309,1.532482-7.704315l10.089924-4.636475     c2.304211-1.058815,3.40395-3.713829,2.523327-6.09185l-3.856171-10.413139     c-1.146088-3.094872,1.066261-6.405884,4.364143-6.531395l11.096176-0.422302     c2.534004-0.096436,4.566063-2.128494,4.662498-4.662498l0.422302-11.096176     c0.125504-3.297882,3.436523-5.510231,6.531395-4.364143l10.413139,3.856171     c2.378021,0.880627,5.033028-0.219112,6.09185-2.523327l4.636475-10.089924     c1.377998-2.998814,5.283607-3.775688,7.704308-1.532482l8.144791,7.547573     C126.563118,57.512424,129.436874,57.512424,131.29689,55.788803z"/></g><g><g><path class="st5" d="M96.268158,132.980759H82.194725v14.14357h-6.826317v-34.038071h23.284279v5.260002H82.194725v9.374496      h14.073433V132.980759z"/></g><g><path class="st5" d="M108.227066,133.518448v13.605881h-6.826317v-34.038071h13.372093      c3.927475,0,6.884766,0.841599,8.871872,2.524803c1.987114,1.683197,2.980675,4.153061,2.980675,7.410759      c0,1.901779-0.494446,3.459915-1.484489,4.67556c-0.990051,1.215645-2.442986,2.197502-4.359962,2.945595v0.070129      c2.01049,0.623032,3.433029,1.609573,4.266449,2.957291c0.83342,1.347733,1.25071,3.074188,1.25071,5.178192v2.501419      c0,0.950302,0.125069,1.916977,0.374046,2.898849c0.24897,0.981857,0.693153,1.721771,1.332527,2.220886v0.654587h-6.989952      c-0.639381-0.514313-1.052002-1.352417-1.239021-2.513123c-0.187027-1.160706-0.280533-2.26413-0.280533-3.307953v-2.407913      c0-1.745148-0.424309-3.077682-1.274094-3.997604s-2.130882-1.379288-3.84565-1.379288H108.227066z M108.227066,128.258438      h5.891205c1.948532,0,3.386269-0.397415,4.313202-1.192261c0.926926-0.794846,1.390976-2.002312,1.390976-3.623558      c0-1.604889-0.435997-2.855598-1.309158-3.752136s-2.236084-1.344223-4.09111-1.344223h-6.195114V128.258438z"/></g><g><path class="st5" d="M152.19017,132.162537h-14.096802v9.725159h16.481339v5.236633h-23.307663v-34.038071h23.26091v5.260002      h-16.434586v8.556274h14.096802V132.162537z"/></g><g><path class="st5" d="M178.247055,132.162537h-14.096802v9.725159h16.481339v5.236633h-23.307663v-34.038071h23.26091v5.260002      h-16.434586v8.556274h14.096802V132.162537z"/></g></g></g></g></svg>