<?xml version="1.0" encoding="UTF-8" standalone="no"?>
<!-- Created with Inkscape (http://www.inkscape.org/) -->

<svg
   xmlns:dc="http://purl.org/dc/elements/1.1/"
   xmlns:cc="http://creativecommons.org/ns#"
   xmlns:rdf="http://www.w3.org/1999/02/22-rdf-syntax-ns#"
   xmlns:svg="http://www.w3.org/2000/svg"
   xmlns="http://www.w3.org/2000/svg"
   xmlns:sodipodi="http://sodipodi.sourceforge.net/DTD/sodipodi-0.dtd"
   xmlns:inkscape="http://www.inkscape.org/namespaces/inkscape"
   width="262.20471"
   height="372.04724"
   id="svg4209"
   version="1.1"
   inkscape:version="0.48.5 r10040"
   sodipodi:docname="IconoAlergenoLacteos.svg">
  <defs
     id="defs4211" />
  <sodipodi:namedview
     id="base"
     pagecolor="#ffffff"
     bordercolor="#666666"
     borderopacity="1.0"
     inkscape:pageopacity="0.0"
     inkscape:pageshadow="2"
     inkscape:zoom="0.20031052"
     inkscape:cx="1166.5898"
     inkscape:cy="885.81209"
     inkscape:document-units="px"
     inkscape:current-layer="layer1"
     showgrid="false"
     inkscape:window-width="1280"
     inkscape:window-height="924"
     inkscape:window-x="0"
     inkscape:window-y="28"
     inkscape:window-maximized="1" />
  <metadata
     id="metadata4214">
    <rdf:RDF>
      <cc:Work
         rdf:about="">
        <dc:format>image/svg+xml</dc:format>
        <dc:type
           rdf:resource="http://purl.org/dc/dcmitype/StillImage" />
        <dc:title></dc:title>
      </cc:Work>
    </rdf:RDF>
  </metadata>
  <g
     inkscape:label="Capa 1"
     inkscape:groupmode="layer"
     id="layer1"
     transform="translate(0,-680.31494)">
    <g
       id="g4979"
       transform="matrix(5.5766334,0,0,5.5766334,-1073.8786,-1027.3502)">
      <text
         sodipodi:linespacing="125%"
         id="text4050-3"
         y="364.30551"
         x="203.27881"
         style="font-size:15px;font-style:normal;font-weight:normal;line-height:125%;letter-spacing:0px;word-spacing:0px;fill:#000000;fill-opacity:1;stroke:none;font-family:Sans"
         xml:space="preserve"><tspan
           style="font-size:5.5px"
           y="364.30551"
           x="203.27881"
           id="tspan4052-1"
           sodipodi:role="line">LACTEOS</tspan></text>
      <g
         id="g4972">
        <path
           sodipodi:type="arc"
           style="fill:#6d351e;fill-opacity:1;stroke:#6d351e;stroke-width:0.40000001;stroke-linecap:round;stroke-linejoin:round;stroke-miterlimit:4;stroke-opacity:1;stroke-dasharray:none;stroke-dashoffset:0"
           id="path3230-0-5"
           sodipodi:cx="21.573027"
           sodipodi:cy="29.287827"
           sodipodi:rx="18.363815"
           sodipodi:ry="18.720394"
           d="m 39.936842,29.287827 c 0,10.338988 -8.22176,18.720394 -18.363815,18.720394 -10.142055,0 -18.3638157,-8.381406 -18.3638157,-18.720394 0,-10.338989 8.2217607,-18.720395 18.3638157,-18.720395 10.142055,0 18.363815,8.381406 18.363815,18.720395 z"
           transform="matrix(1.1124938,0,0,1.0913035,192.07692,303.45594)" />
        <g
           id="g4264"
           transform="translate(-72.470092,306.21785)">
          <path
             inkscape:connector-curvature="0"
             id="path4240"
             d="m 290.7187,17.293747 2.125,-0.71875 1.5625,-0.40625 1,0.03125 0.75,0.25 0.625,0.59375 0.0625,0.71875 -0.125,0.5 -0.53125,0.4375 -0.90625,0.46875 -0.65625,0.40625 -0.375,0.5 -0.25,1.0625 -0.1875,0.875 0.1875,1.34375 0.6875,0.90625 0.9375,1.3125 1.03125,2.21875 0.4375,1.4375 0.40625,2.53125 0.125,1.78125 -0.0937,1.71875 -0.34375,1.875 -0.5625,1.34375 -0.65625,1.125 -0.75,1.21875 -0.71875,0.71875 -0.875,0.5 -1.59375,0.1875 -4.3125,-0.0625 -1.375,-0.125 -0.65625,-0.15625 -0.53125,-0.34375 -0.6875,-0.75 -1.46875,-2.1875 -0.5625,-1.5625 -0.375,-1.40625 -0.0625,-1.40625 0.0313,-0.59375 -0.46875,-0.6875 -0.6875,-1.25 -0.625,-1.28125 -0.5625,-1.9375 -0.21875,-1.09375 0.15625,-1.5625 0.28125,-1.53125 0.59375,-1.25 1.15625,-1.28125 1.1875,-0.65625 1.28125,-0.4375 -0.53125,-1.0625 -0.15625,-0.78125 0.125,-0.53125 0.6875,-0.5 1.375,-0.40625 1.46875,-0.21875 1.125,0 1.09375,0 0.65625,0.09375 -0.125,0.0625 -0.5625,0.15625 -0.75,0 -0.90625,0.0625 -1.28125,0.125 -0.96875,0.3125 -0.5625,0.3125 0.15625,0.3125 0.625,0.15625 0.9375,0.125 0.40625,-0.03125 0.875,-0.3125 1.46875,-0.625 1.0625,-0.46875 z"
             style="fill:#ffffff;stroke:#ffffff;stroke-width:0.05;stroke-linecap:round;stroke-linejoin:round;stroke-miterlimit:4;stroke-opacity:1;stroke-dasharray:none" />
          <path
             inkscape:connector-curvature="0"
             id="path4253"
             d="m 282.10937,31.153122 0.23438,-1.46875 0.48437,-1.65625 0.59375,-1.515625 0.53125,-0.984375 0.45313,-0.6875 0.14062,-0.25 0.20313,-0.578125 0.0469,-0.953125 -0.10937,-0.65625 -0.14063,-0.171875 -0.21875,-0.109375 -0.17187,0.0625 -0.90625,0.5 -0.64063,0.46875 -0.89062,0.921875 -0.46875,0.796875 -0.32813,1 -0.0937,1.046875 0.10938,1.03125 0.1875,0.953125 0.29687,0.875 0.3125,0.65625 z"
             style="fill:#6d351e;fill-opacity:1;stroke:#6d351e;stroke-width:0.05;stroke-linecap:butt;stroke-linejoin:round;stroke-miterlimit:4;stroke-opacity:1;stroke-dasharray:none" />
          <path
             inkscape:connector-curvature="0"
             id="path4255"
             d="m 286.125,20.793747 0.42187,-0.140625 0.46875,-0.01563 0.28125,0.0625 0.15625,0.328125 0.0625,0.5 0,0.984375 -0.0313,0.890625 -0.14062,0.875 -0.28125,0.6875 -0.17188,0.34375 -0.25,0.5 -0.29687,0.484375 -0.46875,0.765625 -0.3125,0.734375 -0.53125,1.1875 -0.375,1.09375 -0.25,0.609375 -0.20313,0.5 -0.20312,0.109375 -0.17188,-0.03125 -0.10937,-0.07813 -0.0625,-0.3125 0.28125,-1.5 0.375,-1.109375 0.53125,-1.4375 0.54687,-1.015625 0.45313,-0.875 0.3125,-0.703125 0.0937,-0.578125 -0.15625,-1.28125 -0.0781,-0.90625 L 286,21.106247 z"
             style="fill:#6d351e;fill-opacity:1;stroke:#6d351e;stroke-width:0.05;stroke-linecap:round;stroke-linejoin:round;stroke-miterlimit:4;stroke-opacity:1;stroke-dasharray:none" />
        </g>
      </g>
    </g>
  </g>
</svg>
