<?xml version="1.0" encoding="utf-8"?>
<!-- Generator: Adobe Illustrator 19.2.1, SVG Export Plug-In . SVG Version: 6.00 Build 0)  -->
<svg version="1.1"
	 id="svg2" xmlns:cc="http://creativecommons.org/ns#" xmlns:dc="http://purl.org/dc/elements/1.1/" xmlns:rdf="http://www.w3.org/1999/02/22-rdf-syntax-ns#" xmlns:svg="http://www.w3.org/2000/svg"
	 xmlns="http://www.w3.org/2000/svg" xmlns:xlink="http://www.w3.org/1999/xlink" x="0px" y="0px" viewBox="0 0 932.7 297.1"
	 style="enable-background:new 0 0 932.7 297.1;" xml:space="preserve">
<style type="text/css">
	.st0{fill:#FFFFFF;}
</style>
<g id="g10" transform="matrix(1.25,0,0,-1.25,0,297.075)">
	<g id="g12" transform="scale(0.1,0.1)">
		<path id="path14" class="st0" d="M6715.4,1008.7L6715.4,1008.7c-152.1,0-262.6-124.4-262.6-262.6s110.5-262.5,262.6-262.5
			c138.1,0,248.7,124.4,248.7,262.5C6964.1,884.3,6853.5,1008.7,6715.4,1008.7z M6052.1,511.2L6052.1,511.2l912,1368h-456
			l-911.9-1368C5596.1,511.2,6052.1,511.2,6052.1,511.2z M7226.6,732.3L7226.6,732.3c0-276.4-221.1-497.4-497.4-497.4H5333.6v1409.4
			c0,276.3,221.1,511.3,497.4,511.3h1395.6V732.3z M7171.4,2376.6H5831c-400.7,0-732.3-317.8-732.3-732.3V290.2
			c0-152,124.4-276.3,290.1-276.3h1340.3c400.7,0,732.3,317.8,732.3,718.5v1354.1C7461.5,2252.3,7337.2,2376.6,7171.4,2376.6
			L7171.4,2376.6z M5596.1,1644.3L5596.1,1644.3c0-152,110.5-262.5,248.7-262.5c152,0,262.5,110.5,262.5,262.5
			c0,138.2-110.5,248.7-262.5,248.7C5706.7,1893,5596.1,1782.5,5596.1,1644.3z M1893,248.7h483.6v1589L1893,1630.5V248.7L1893,248.7
			z M3730.8,898.2L3730.8,898.2c-41.5-138.2-179.7-234.9-331.6-234.9c-193.4,0-345.4,152-345.4,345.5c0,193.4,152,345.4,345.4,345.4
			s345.4-152,345.4-345.4C3744.5,967.3,3744.5,939.6,3730.8,898.2L3730.8,898.2z M3399.1,1810.1L3399.1,1810.1
			c-442.2,0-787.6-359.2-787.6-801.4c0-469.8,373.1-787.6,773.8-787.6c138.2,0,317.8,55.3,456,193.4l359.2-165.8v760
			C4200.5,1450.9,3841.3,1810.1,3399.1,1810.1z M718.5,704.7H456v967.2h262.5c262.5-13.8,469.8-221.1,469.8-483.6
			S981.1,718.5,718.5,704.7z M704.7,2127.9H0V248.7h704.7c525.1,0,939.6,414.5,939.6,939.6
			C1644.3,1699.6,1229.8,2127.9,704.7,2127.9"/>
	</g>
</g>
</svg>
